<svg width="301" height="248" viewBox="0 0 301 248" fill="none" xmlns="http://www.w3.org/2000/svg">
<path fill-rule="evenodd" clip-rule="evenodd" d="M108.968 189.101C76.4809 189.101 50.1449 215.437 50.1449 247.924H0.758057C0.758057 188.161 49.2053 139.714 108.968 139.714C168.731 139.714 217.178 188.161 217.178 247.924H167.791C167.791 215.437 141.455 189.101 108.968 189.101Z" fill="white"/>
<path fill-rule="evenodd" clip-rule="evenodd" d="M192.549 50.2425C160.089 50.2425 133.726 76.5944 133.726 109.161H84.3396C84.3396 49.3721 132.76 0.855713 192.549 0.855713C252.338 0.855713 300.758 49.3721 300.758 109.161V247.921H251.371V109.161C251.371 76.5944 225.009 50.2425 192.549 50.2425Z" fill="white"/>
</svg>
